<?xml version="1.0" encoding="UTF-8"?>
<svg version="1.1" xmlns="http://www.w3.org/2000/svg" width="1086" height="230">
<path d="M0 0 C0.78117187 0.89332031 0.78117187 0.89332031 1.578125 1.8046875 C2.92182033 3.20245599 2.92182033 3.20245599 4.8125 2.953125 C7.87085503 1.62055602 10.32005721 -0.26631686 13 -2.25 C28.11435207 -13.01641699 44.98114947 -15.95495742 63.1875 -13 C81.19159574 -9.06217641 94.98477112 1.15353103 105.05859375 16.59765625 C109.7552529 24.82862229 112.12317489 32.96507959 113.11230469 42.29833984 C113.19624355 43.07830511 113.28018242 43.85827038 113.36666489 44.66187096 C114.22548766 53.28664015 114.29039577 61.87929172 114.265625 70.5390625 C114.26697773 72.242951 114.26892326 73.94683912 114.27142334 75.65072632 C114.27433809 79.18173989 114.27019125 82.71265088 114.26074219 86.24365234 C114.24926137 90.75110187 114.25598433 95.25831538 114.26788712 99.76575661 C114.27513052 103.26774868 114.2728079 106.76968513 114.26763153 110.27167892 C114.26630644 111.934137 114.26790234 113.59660028 114.27259064 115.25905228 C114.27770691 117.57859908 114.2698787 119.89776642 114.25878906 122.21728516 C114.25719788 123.5308902 114.25560669 124.84449524 114.25396729 126.19790649 C113.80384521 132.93659416 112.44174868 138.71792049 108 144 C103.22735731 147.71601284 98.07590293 149.50656537 91.95703125 148.74609375 C87.43210318 147.80375413 84.28471095 146.37855983 81 143 C77.38216338 136.79799437 76.85343064 131.71108807 76.8581543 124.64233398 C76.85467987 123.80110489 76.85120544 122.95987579 76.84762573 122.09315491 C76.8402799 120.26746212 76.83492827 118.44176047 76.83133507 116.61605644 C76.82415012 113.71841647 76.80846626 110.82094393 76.78999329 107.9233551 C76.73763416 99.68484864 76.68960502 91.44643278 76.67407227 83.20776367 C76.66394261 78.16495079 76.63448926 73.12255833 76.59275246 68.07991219 C76.58050508 66.16597753 76.57530965 64.25198332 76.57755089 62.33801079 C77.01718117 46.03977309 77.01718117 46.03977309 70.08964539 31.8212738 C63.94541405 25.93827051 58.52175439 23.85080058 50.125 23.5625 C42.80809921 23.75647934 37.42822505 24.84207731 31.96875 29.87109375 C24.77969407 37.66414823 23.85127722 45.3732973 23.8581543 55.63232422 C23.85294266 56.90183426 23.85294266 56.90183426 23.84762573 58.19699097 C23.84029906 60.02702052 23.83493731 61.85705878 23.83133507 63.68709946 C23.8241354 66.58827565 23.80844354 69.48928605 23.78999329 72.39041138 C23.73768255 80.63639076 23.68955132 88.88227613 23.67407227 97.12841797 C23.66397021 102.18000759 23.63459432 107.23117433 23.59275246 112.28259659 C23.58047463 114.20180178 23.5753153 116.12106675 23.57755089 118.04030991 C23.57991378 120.73029228 23.55766475 123.41906795 23.5300293 126.10888672 C23.53993141 127.28590149 23.53993141 127.28590149 23.55003357 128.48669434 C23.44421771 134.79077254 21.71914444 140.35934632 17.10546875 144.83984375 C12.05737355 147.72887583 7.70417891 149.78689811 1.73828125 148.51953125 C-2.86365659 147.14275315 -6.64856724 145.54857587 -10 142 C-12.74788333 136.67745116 -13.43675617 132.51453041 -13.40063477 126.57714844 C-13.41110336 125.35853874 -13.41110336 125.35853874 -13.42178345 124.11531067 C-13.4416733 121.4465581 -13.44125976 118.77819492 -13.44140625 116.109375 C-13.45319156 114.24000012 -13.46655859 112.37063461 -13.48143005 110.50128174 C-13.51755474 105.58677895 -13.53779301 100.6723591 -13.55297852 95.75775146 C-13.5778305 87.90723353 -13.61784331 80.05689912 -13.67487907 72.2065506 C-13.69106271 69.47975756 -13.69497295 66.75314104 -13.69789124 64.02630615 C-13.19559695 46.53621444 -13.19559695 46.53621444 -20.50390625 31.4140625 C-28.0258249 24.51476351 -34.29687003 23.43520165 -44.39453125 23.64453125 C-49.06462346 24.10496288 -52.22263636 25.28443261 -56 28 C-56.9075 28.598125 -57.815 29.19625 -58.75 29.8125 C-63.98859573 34.90557918 -65.86378772 40.50321968 -66.14476013 47.71621704 C-66.15921977 49.17877274 -66.16848888 50.6413856 -66.17358398 52.10400391 C-66.180271 52.90636475 -66.18695801 53.70872559 -66.19384766 54.53540039 C-66.20786313 56.27321503 -66.21976823 58.0110477 -66.22979546 59.74888992 C-66.24628149 62.5079829 -66.26952513 65.26694381 -66.29469299 68.02597046 C-66.36523844 75.86929669 -66.42536235 83.71267801 -66.47680664 91.55615234 C-66.50878903 96.36011122 -66.55011546 101.16391898 -66.59700203 105.96775436 C-66.61291147 107.7895877 -66.62528336 109.61145578 -66.63390923 111.43333817 C-66.76152432 138.01424306 -66.76152432 138.01424306 -73.296875 144.62890625 C-77.07395179 147.66962633 -80.68480596 148.83261167 -85.4375 149.4375 C-91.17946163 148.73234682 -95.38505267 146.69994456 -99.375 142.5 C-101.72344582 138.88700643 -103.24659551 136.24948853 -103.26742554 131.88600159 C-103.27595551 131.07470291 -103.28448547 130.26340424 -103.29327393 129.42752075 C-103.29236755 128.54595306 -103.29146118 127.66438538 -103.29052734 126.75610352 C-103.29724457 125.8205513 -103.30396179 124.88499908 -103.31088257 123.9210968 C-103.32989894 120.82364602 -103.33378968 117.72641182 -103.3359375 114.62890625 C-103.3423667 112.46858126 -103.34909515 110.30825713 -103.35610962 108.14793396 C-103.36809419 103.61268092 -103.37178961 99.07750409 -103.37060547 94.54223633 C-103.37040309 88.759053 -103.3976164 82.97636555 -103.43214989 77.19329929 C-103.45451043 72.72600612 -103.45844009 68.25883012 -103.45738602 63.79148674 C-103.45973163 61.66145062 -103.46849589 59.53141075 -103.48405075 57.40143013 C-103.56001458 45.9168035 -103.49740991 35.74910018 -99 25 C-98.49339844 23.78183594 -97.98679687 22.56367187 -97.46484375 21.30859375 C-89.23723871 5.84237968 -76.88623921 -6.05776858 -60.046875 -11.6484375 C-39.05649538 -17.535983 -17.08421405 -13.34355281 0 0 Z " fill="#181717" transform="translate(103,81)"/>
<path d="M0 0 C1.30453125 -0.02578125 2.6090625 -0.0515625 3.953125 -0.078125 C8.61328559 0.32460493 11.88137758 1.54919076 15.359375 4.71484375 C21.05635064 12.07018558 21.83616268 18.10123709 21.95532227 27.37866211 C21.96522186 28.05268066 21.97512146 28.72669922 21.98532104 29.42114258 C22.0166144 31.62317534 22.04156448 33.82522959 22.06640625 36.02734375 C22.08700366 37.56434147 22.10800081 39.10133387 22.12937927 40.63832092 C22.18431241 44.66431349 22.23384728 48.69035472 22.28222656 52.71643066 C22.33265291 56.83248169 22.38822815 60.94846291 22.44335938 65.06445312 C22.55058866 73.12624289 22.65211035 81.18809144 22.75 89.25 C23.29500656 88.69769714 23.84001312 88.14539429 24.40153503 87.57635498 C25.11876236 86.85345276 25.83598969 86.13055054 26.57495117 85.38574219 C27.28495773 84.66843933 27.99496429 83.95113647 28.72648621 83.21209717 C40.71511242 71.58734343 57.43374327 67.88385498 73.62011719 67.9453125 C88.56741504 68.31385659 101.73853832 72.72564435 112.62890625 83.02734375 C124.9776501 96.06953758 126.88775853 114.62636943 126.91113281 131.79541016 C126.91609772 132.69110214 126.92106262 133.58679413 126.92617798 134.5096283 C126.94063704 137.43611449 126.94757111 140.36254665 126.953125 143.2890625 C126.95736607 144.79937105 126.95736607 144.79937105 126.96169281 146.34019089 C126.97661264 151.65973924 126.98588987 156.97926094 126.99023438 162.29882812 C126.99573477 167.77732271 127.01981643 173.25557075 127.04820633 178.73398781 C127.0668578 182.96514602 127.07203946 187.1962448 127.07357025 191.42744064 C127.07658731 193.44717138 127.08458367 195.4669013 127.09775543 197.48659134 C127.11488237 200.31237799 127.11292044 203.13756087 127.10644531 205.96337891 C127.1156601 206.78852493 127.12487488 207.61367096 127.1343689 208.46382141 C127.09272616 214.289174 126.38802773 220.17054745 122.43962479 224.77964211 C116.96614214 229.68189334 111.37657185 230.67757778 104.27734375 230.49609375 C98.80877629 229.96360573 94.53283331 228.52487364 90.875 224.3125 C85.68089643 216.82688014 85.60839366 209.98965736 85.6875 201.09765625 C85.6963552 199.03841209 85.70505641 196.97916726 85.71362305 194.91992188 C85.71985687 193.84154053 85.7260907 192.76315918 85.73251343 191.65209961 C85.81963783 175.01301082 85.83602355 158.37063131 85.48754883 141.73434448 C85.45454714 140.09619307 85.42644039 138.4579347 85.40356445 136.8196106 C85.34988533 120.52781025 85.34988533 120.52781025 77.58984375 106.72265625 C70.02215046 100.66528816 61.08018366 100.24925441 51.75 101.25 C44.17164382 102.79880066 38.31242722 104.83790865 32.75 110.25 C32.09 110.25 31.43 110.25 30.75 110.25 C30.5025 110.765625 30.255 111.28125 30 111.8125 C28.71236261 114.32339292 27.25990234 116.69531037 25.75 119.078125 C22.5513575 126.02517667 22.35687671 133.25995736 22.14453125 140.7734375 C22.10689163 141.89833588 22.06925201 143.02323425 22.0304718 144.18222046 C21.75679518 153.07077283 21.65024147 161.95943556 21.57421875 170.8515625 C21.56214386 172.16461365 21.55006897 173.47766479 21.53762817 174.83050537 C21.46440228 182.92149617 21.46440228 182.92149617 21.42407227 191.01269531 C21.41591906 193.72777451 21.3973466 196.44239454 21.36714172 199.15731812 C21.33930436 201.67479312 21.32603576 204.19248774 21.33000183 206.71011353 C21.21241437 214.81556968 20.35734069 220.73515523 14.3125 226.625 C8.24897954 230.47015932 2.80532681 231.03282418 -4.25 230.25 C-10.42744681 228.48350408 -14.91334179 224.67953094 -18.25 219.25 C-21.51162317 210.22216928 -20.50440382 199.78033394 -20.44873047 190.34130859 C-20.44484735 188.43165737 -20.4418029 186.52200428 -20.43952942 184.61235046 C-20.43048701 179.44928126 -20.40829816 174.28635034 -20.38258505 169.12334013 C-20.36197438 164.80658889 -20.34703527 160.48982455 -20.33182538 156.17305148 C-20.29552865 145.98933166 -20.24770908 135.80570837 -20.19335938 125.62207031 C-20.13760323 115.12583846 -20.10419559 104.62969627 -20.08125198 94.13334596 C-20.06057182 85.1079581 -20.02460602 76.08271523 -19.9767276 67.05743086 C-19.94840432 61.6727273 -19.92617178 56.2881701 -19.91924667 50.90339279 C-19.91219061 45.84212789 -19.88607356 40.7813122 -19.84541893 35.72020912 C-19.83372756 33.86592568 -19.82876292 32.01158543 -19.83111382 30.15726662 C-19.83326465 27.62023941 -19.81084127 25.08454245 -19.78244019 22.54769897 C-19.78883636 21.81908799 -19.79523254 21.090477 -19.80182254 20.33978689 C-19.69218958 14.38286172 -17.9452531 9.03574793 -13.73206031 4.68109453 C-8.94836174 0.60723144 -6.22120088 0.0731906 0 0 Z " fill="#171717" transform="translate(772.25,-0.25)"/>
<path d="M0 0 C0.6909375 0.64195313 1.381875 1.28390625 2.09375 1.9453125 C2.7021875 2.46351562 3.310625 2.98171875 3.9375 3.515625 C14.18190716 12.78215693 20.22752827 25.9181442 24.09375 38.9453125 C24.38415161 39.90630859 24.38415161 39.90630859 24.68041992 40.88671875 C26.61457036 48.24634708 26.53465014 55.75598547 26.53125 63.3203125 C26.53235275 64.3841214 26.53235275 64.3841214 26.53347778 65.46942139 C26.47096709 88.44550119 20.28309374 108.82386036 3.64453125 125.3828125 C-13.34885414 141.20513764 -35.36844828 146.89533338 -58.234375 146.2265625 C-79.09478323 145.19641888 -99.43923217 137.31219268 -113.90625 121.9453125 C-129.88410753 102.27628595 -134.97579891 77.46033793 -132.68798828 52.57080078 C-130.21561597 31.74464881 -121.77777812 13.04358917 -105.65625 -0.8046875 C-77.69361772 -22.6132329 -27.32278887 -23.95297824 0 0 Z M-82.6484375 26.94140625 C-93.0541229 41.04861656 -93.59613969 61.34702881 -91.4453125 78.1640625 C-89.33874779 90.15908978 -84.96511743 101.4917435 -74.90625 108.9453125 C-64.37682158 114.93645242 -53.02624285 116.76780185 -41.1953125 113.7578125 C-31.07321172 110.16498492 -23.95337431 103.4399176 -19.15625 93.9453125 C-11.46376361 75.56458594 -12.10102036 54.14916071 -18.59375 35.5078125 C-22.17369854 27.42230136 -28.79433252 20.52409962 -36.90625 16.9453125 C-53.50511465 11.26675354 -70.63702109 13.17944709 -82.6484375 26.94140625 Z " fill="#181717" transform="translate(1059.90625,84.0546875)"/>
<path d="M0 0 C1.12019531 -0.01160156 2.24039063 -0.02320312 3.39453125 -0.03515625 C21.64607754 0.02799789 38.79298323 5.94991753 52.125 18.5625 C66.38426006 33.41796606 72.47891691 53.6832509 72.875 73.9375 C72.91238281 74.66646484 72.94976563 75.39542969 72.98828125 76.14648438 C73.05123004 80.03182348 72.73705115 82.62884252 70.3515625 85.77734375 C64.79689093 90.83742127 58.86660276 90.67679927 51.73095703 90.69384766 C50.76447739 90.70389328 49.79799774 90.7139389 48.80223083 90.72428894 C45.62076388 90.7550783 42.43938092 90.77214441 39.2578125 90.7890625 C37.04677612 90.80777754 34.83574685 90.82735121 32.62472534 90.8477478 C26.81498412 90.89903933 21.00521974 90.93868112 15.19537354 90.97589111 C9.26300341 91.01594934 3.33072934 91.06703342 -2.6015625 91.1171875 C-14.2343075 91.21391157 -25.86710677 91.29832773 -37.5 91.375 C-37.19517683 93.30234491 -36.88578742 95.22896801 -36.57446289 97.15527344 C-36.40266006 98.22823669 -36.23085724 99.30119995 -36.05384827 100.40667725 C-34.21102436 110.28320205 -28.59430803 117.6856222 -20.5 123.375 C-5.85505125 132.28467738 13.17841745 132.30912682 29.5 128.375 C34.79112117 126.64391643 39.9475462 124.6512269 44.9296875 122.16015625 C50.81030773 119.21984613 55.94543449 118.51914909 62.5 119.375 C65.69556529 120.63991126 67.03559295 121.86255084 69.3125 124.375 C71.35107653 129.52508808 71.69965501 135.18197884 69.7265625 140.43359375 C66.36641177 145.78362098 60.97767156 148.54578657 55.5 151.375 C54.65308594 151.8184375 53.80617188 152.261875 52.93359375 152.71875 C29.56947011 164.1396629 0.84841004 165.75054327 -23.953125 158.34375 C-44.36929957 151.04521416 -60.69992387 138.63419806 -70.3125 119 C-79.49156153 97.30692378 -81.0715674 69.99289804 -72.14208984 47.91137695 C-70.71950244 44.66403115 -69.15892832 41.50745219 -67.5 38.375 C-66.97535156 37.37984375 -66.45070313 36.3846875 -65.91015625 35.359375 C-56.69409126 19.58615864 -41.06188886 7.67997869 -23.58154297 2.51220703 C-15.62190478 0.56853056 -8.17868054 -0.0847044 0 0 Z M-28.5 40.375 C-34.37850562 48.32906 -37.59668213 56.4794996 -37.5 66.375 C-21.6137181 67.65934871 -5.79550444 67.28605895 10.125 66.9375 C12.78903682 66.88338561 15.45311014 66.83140876 18.1171875 66.77929688 C24.57828438 66.65159596 31.03918806 66.51635047 37.5 66.375 C39.65334858 58.57967208 36.74316071 50.6132695 32.9609375 43.7265625 C28.6094062 36.72222602 24.14377515 32.14076813 16.2734375 29.2265625 C0.21683661 25.60302317 -17.19041139 27.37023816 -28.5 40.375 Z " fill="#181717" transform="translate(496.5,67.625)"/>
<path d="M0 0 C3.61091283 2.76445223 6.83147412 5.74313232 10 9 C10.54914063 9.51691406 11.09828125 10.03382812 11.6640625 10.56640625 C24.24713409 23.45227903 29.07575799 44.24726935 29.375 61.5625 C29.43107422 62.7990332 29.43107422 62.7990332 29.48828125 64.06054688 C29.54689953 68.13451706 29.38951342 71.1226809 26.9140625 74.46484375 C21.12586263 79.50042246 14.53699219 79.30108594 7.20922852 79.31884766 C6.25235641 79.32889328 5.29548431 79.3389389 4.30961609 79.34928894 C1.16605191 79.38002911 -1.97742745 79.39713063 -5.12109375 79.4140625 C-7.30828069 79.43278151 -9.49546047 79.45235547 -11.68263245 79.4727478 C-17.42495492 79.52399745 -23.1673008 79.5636616 -28.909729 79.60089111 C-34.77516432 79.64097566 -40.64050292 79.69204771 -46.50585938 79.7421875 C-58.00383823 79.83886196 -69.5018718 79.92329391 -81 80 C-80.56307655 82.21261062 -80.11570585 84.42315956 -79.6640625 86.6328125 C-79.4160791 87.86402832 -79.1680957 89.09524414 -78.91259766 90.36376953 C-76.49578444 99.99352236 -71.23177087 107.46614184 -63 113 C-47.39162372 121.14968605 -27.70673495 121.11400388 -11 116 C-6.66263761 114.38147943 -2.38709113 112.6179069 1.82348633 110.69335938 C7.6025698 108.1545576 12.6853354 107.18923348 19 108 C23.11011138 109.79350315 25.15283372 111.68130819 27 115.6875 C28.49539489 120.46742294 27.83477507 124.40448861 26 129 C19.12536435 140.45772608 3.20350838 144.77325781 -9 148 C-35.05329967 154.36027028 -61.90262643 151.99983367 -85.375 138.66015625 C-89.90060487 135.79798055 -93.9741531 132.52177592 -98 129 C-98.69996094 128.40703125 -99.39992188 127.8140625 -100.12109375 127.203125 C-114.68383359 113.91781848 -119.54115922 93.92440676 -121 75 C-121.0721875 74.10539062 -121.144375 73.21078125 -121.21875 72.2890625 C-121.73944502 58.53403577 -119.50037137 43.17053227 -113 31 C-112.2265625 29.49759766 -112.2265625 29.49759766 -111.4375 27.96484375 C-107.49746758 20.75057143 -102.7975444 14.80767997 -97 9 C-96.38640625 8.37480469 -95.7728125 7.74960938 -95.140625 7.10546875 C-70.35952286 -16.35185656 -28.25229876 -17.57997563 0 0 Z M-70 27 C-76.92342238 35.9514956 -79.85295892 43.52958916 -81 55 C-55.92 55 -30.84 55 -5 55 C-6.27487809 40.97634098 -8.89871592 32.10128408 -18.8125 22.1875 C-25.76335543 17.4173051 -33.02483663 16.44148096 -41.3125 16.5 C-42.23168213 16.50427002 -43.15086426 16.50854004 -44.09790039 16.51293945 C-54.14366026 16.76357421 -62.95698962 19.62160817 -70 27 Z " fill="#181717" transform="translate(367,79)"/>
<path d="M0 0 C3.1556093 2.55626017 5.85851414 5.10558956 6.62109375 9.20703125 C6.6307229 15.32154414 5.90459586 18.95235953 2.1875 23.875 C-1.43143859 27.08034561 -4.60175862 27.21097605 -9.22875977 27.15356445 C-13.995616 26.63962862 -18.26861589 24.78111228 -22.6875 23 C-40.09626573 16.07077257 -55.43828695 14.99803486 -73.3125 21.0625 C-76.94482732 23.69593731 -78.50643102 26.61736269 -79.8125 30.875 C-80.45227807 35.19529911 -80.33070618 38.64766958 -78.625 42.6875 C-70.54569672 52.43838327 -56.14161057 53.3523853 -44.36315918 55.45431519 C-6.76461876 62.22803148 -6.76461876 62.22803148 3.9765625 75.98046875 C10.99092643 86.95455425 11.80717166 99.72437091 9.57421875 112.33984375 C5.48552323 126.04688027 -3.67596377 134.86867878 -15.94921875 141.59375 C-23.35916463 145.24062324 -30.70072233 147.41400779 -38.8125 148.875 C-40.6996875 149.2153125 -40.6996875 149.2153125 -42.625 149.5625 C-66.43002766 151.87414525 -95.70625167 148.93448031 -115.8125 134.875 C-119.36441931 130.81740436 -121.62274754 127.92432654 -122.125 122.5 C-121.65900941 117.09450915 -120.21182085 114.1410522 -116.1875 110.5 C-111.35360815 108.17257059 -106.78246083 108.05457604 -101.58886719 109.48925781 C-99.35871854 110.32293011 -97.18131592 111.23357733 -95 112.1875 C-82.46292654 117.36622287 -70.4682379 120.05230252 -56.875 120.0625 C-56.01970703 120.07474609 -55.16441406 120.08699219 -54.28320312 120.09960938 C-45.87458186 120.11885107 -38.81055957 118.71981047 -31.8125 113.875 C-28.28738348 109.70051992 -27.00395562 106.33148528 -26.8125 100.875 C-27.47139932 96.98749399 -28.12745877 94.64843365 -30.75 91.6875 C-41.32941584 85.42621308 -53.63777547 84.05671151 -65.55249023 82.02319336 C-83.51842558 78.92925182 -100.59190713 75.07002286 -112.1171875 59.671875 C-118.48549496 49.16563504 -119.22355119 37.59678575 -116.6875 25.8125 C-112.75667849 11.82608856 -104.89631733 2.67048744 -92.38671875 -4.39160156 C-67.29052268 -17.70221728 -23.52940052 -16.99106619 0 0 Z " fill="#181717" transform="translate(713.8125,80.125)"/>
</svg>
