<?xml version="1.0" encoding="UTF-8"?>
<svg version="1.1" xmlns="http://www.w3.org/2000/svg" width="512" height="512">
<path d="M0 0 C4.13339605 1.82938488 7.98350846 4.08272743 11.875 6.375 C12.99269775 7.01767822 14.11039551 7.66035645 15.26196289 8.32250977 C18.51731513 10.19948862 21.76035224 12.0960743 25 14 C26.5012173 14.87644733 28.00250721 15.7527703 29.50390625 16.62890625 C32.16395909 18.18681173 34.81756007 19.75519284 37.46875 21.328125 C43.09867855 24.66001908 48.7691917 27.92147673 54.4375 31.1875 C55.54472412 31.82550537 56.65194824 32.46351074 57.79272461 33.12084961 C60.06337068 34.42889477 62.33412358 35.73675448 64.60498047 37.04443359 C71.14253385 40.81013204 77.67708253 44.58104675 84.21044922 48.35400391 C89.23957512 51.2575032 94.27067116 54.15737244 99.31021118 57.04275513 C101.08432545 58.05877184 102.85769919 59.07606928 104.63085938 60.09375 C106.84815314 61.36582292 109.06681075 62.63552285 111.28710938 63.90234375 C128.00143 73.502145 128.00143 73.502145 131 78 C131.26006222 80.72901726 131.26006222 80.72901726 131.27415466 84.09762573 C131.28412979 85.37347534 131.29410492 86.64932495 131.30438232 87.96383667 C131.30527814 89.38067615 131.3059417 90.79751578 131.30639648 92.21435547 C131.31401669 93.70420752 131.32244395 95.19405564 131.33161926 96.68389893 C131.35358471 100.73352218 131.36236587 104.78306993 131.36744571 108.83274603 C131.37108682 111.36237454 131.37732559 113.8919832 131.3844471 116.42160416 C131.40894856 125.24543377 131.42199502 134.06920452 131.42553711 142.89306641 C131.4291731 151.12007505 131.45907099 159.34671078 131.50094169 167.57360542 C131.53562291 174.63526976 131.55108517 181.6968104 131.55178314 188.75855935 C131.5525767 192.97695054 131.56135085 197.19496197 131.58978081 201.41326523 C131.61592472 205.38116722 131.61818783 209.34837364 131.60212517 213.31632233 C131.60030771 214.77199188 131.60702836 216.22770108 131.62294388 217.68328476 C131.64335716 219.67155593 131.62987979 221.66008873 131.61473083 223.64840698 C131.61674216 224.76080183 131.61875349 225.87319668 131.62082577 227.01930046 C130.63261223 231.76389675 127.50835717 233.96715246 123.6418457 236.61474609 C122.82804443 237.07961426 122.01424316 237.54448242 121.17578125 238.0234375 C119.77706787 238.83059204 119.77706787 238.83059204 118.35009766 239.65405273 C117.34769043 240.22196533 116.3452832 240.78987793 115.3125 241.375 C114.25595215 241.982229 113.1994043 242.58945801 112.11083984 243.21508789 C109.87309323 244.5005984 107.63346354 245.78283577 105.39208984 247.06201172 C101.03413275 249.55182484 96.68943422 252.0642438 92.34448242 254.57666016 C87.99294118 257.09182262 83.63746331 259.60013065 79.28222656 262.10888672 C72.77270411 265.85946399 66.2660522 269.61501989 59.75927734 273.37036133 C54.29465337 276.52385162 48.82852098 279.6746704 43.359375 282.8203125 C42.2647998 283.45050293 41.17022461 284.08069336 40.04248047 284.72998047 C37.86527446 285.98309281 35.68722758 287.23474546 33.50830078 288.48486328 C28.21910454 291.52810605 22.9638284 294.61313918 17.7578125 297.796875 C16.26942871 298.70058838 16.26942871 298.70058838 14.75097656 299.62255859 C12.89398845 300.75409176 11.04379807 301.89689277 9.20214844 303.05322266 C4.01222804 306.20675733 0.14743135 308.2130298 -6 308 C-9.23956132 306.85591979 -12.06460757 305.20790298 -15 303.4375 C-15.86028809 302.9415332 -16.72057617 302.44556641 -17.60693359 301.93457031 C-20.41632347 300.30895449 -23.20773884 298.65483238 -26 297 C-27.90765839 295.88986969 -29.81652544 294.78181391 -31.7265625 293.67578125 C-35.73547288 291.35046601 -39.73736009 289.01367051 -43.734375 286.66796875 C-50.09771035 282.93674029 -56.48349555 279.24521942 -62.875 275.5625 C-63.95475098 274.94020508 -65.03450195 274.31791016 -66.14697266 273.67675781 C-68.33714534 272.41471274 -70.52741243 271.15283148 -72.71777344 269.89111328 C-79.21706294 266.1464319 -85.71356872 262.39692174 -92.20996094 258.6472168 C-97.2500043 255.73852935 -102.29101745 252.83157154 -107.33599854 249.93145752 C-109.11749578 248.90724335 -110.89864322 247.88242349 -112.6796875 246.85742188 C-114.91076625 245.57366625 -117.14249573 244.29104061 -119.375 243.00976562 C-122.25657273 241.35084494 -125.12960143 239.6781599 -128 238 C-128.80663086 237.53883789 -129.61326172 237.07767578 -130.44433594 236.60253906 C-131.16137695 236.1794043 -131.87841797 235.75626953 -132.6171875 235.3203125 C-133.22933105 234.96469238 -133.84147461 234.60907227 -134.47216797 234.24267578 C-136.44203997 232.64046286 -137.05503639 231.3669866 -138 229 C-138.26006222 226.16355228 -138.26006222 226.16355228 -138.27415466 222.82008362 C-138.28412979 221.5512735 -138.29410492 220.28246338 -138.30438232 218.97520447 C-138.30527808 217.57144178 -138.30594167 216.16767892 -138.30639648 214.76391602 C-138.31401895 213.28376853 -138.3224466 211.80362501 -138.33161926 210.32348633 C-138.35355982 206.30491294 -138.3623623 202.28641564 -138.36744571 198.26778913 C-138.37108914 195.75708377 -138.37732906 193.24639836 -138.3844471 190.73570061 C-138.40893793 181.97670491 -138.42199315 173.21776842 -138.42553711 164.45874023 C-138.42917438 156.29362568 -138.45908413 148.12888656 -138.50094169 139.9638868 C-138.5356223 132.9531572 -138.55108514 125.94255218 -138.55178314 118.93173736 C-138.55257659 114.74465902 -138.56134592 110.55796331 -138.58978081 106.37097359 C-138.61592437 102.43342538 -138.61818807 98.49657811 -138.60212517 94.55898285 C-138.6003078 93.11460023 -138.60702754 91.67017764 -138.62294388 90.22588158 C-138.64335873 88.25299145 -138.62987915 86.27983762 -138.61473083 84.30690002 C-138.61674216 83.20317834 -138.61875349 82.09945665 -138.62082577 80.96228886 C-137.79331679 77.01380482 -136.04720464 75.55906768 -133 73 C-130.6227347 71.44899654 -128.27841833 70.01606892 -125.8125 68.625 C-125.08474365 68.20565186 -124.3569873 67.78630371 -123.60717773 67.35424805 C-121.97504162 66.41466562 -120.34088895 65.47858023 -118.70507812 64.54541016 C-115.80301326 62.88746154 -112.90873271 61.2164962 -110.015625 59.54296875 C-104.47890572 56.34110283 -98.93759866 53.14727566 -93.39501953 49.95556641 C-87.9283002 46.80667946 -82.46425113 43.65316736 -77 40.5 C-74.83334689 39.2499765 -72.66668021 37.99997653 -70.5 36.75 C-69.4275 36.13125 -68.355 35.5125 -67.25 34.875 C-57.5 29.25 -57.5 29.25 -54.24487305 27.37207031 C-52.09526366 26.13189239 -49.94568642 24.89165873 -47.79614258 23.65136719 C-42.72690788 20.7264977 -37.65735064 17.80219167 -32.5866394 14.87988281 C-30.19573403 13.50193062 -27.80501328 12.12365828 -25.41430664 10.74536133 C-23.73016037 9.77459018 -22.04574769 8.80428126 -20.36132812 7.83398438 C-18.82702148 6.94936523 -18.82702148 6.94936523 -17.26171875 6.046875 C-16.36412842 5.52963867 -15.46653809 5.01240234 -14.54174805 4.47949219 C-12.79802924 3.46451418 -11.07229934 2.4181794 -9.36303711 1.34619141 C-5.84953246 -0.65540635 -4.03348556 -0.60141435 0 0 Z M-9.30859375 21.97265625 C-10.43491211 22.61734863 -11.56123047 23.26204102 -12.72167969 23.92626953 C-13.96033443 24.6382629 -15.19893991 25.35034199 -16.4375 26.0625 C-17.71118311 26.79294535 -18.98494714 27.52324961 -20.25878906 28.25341797 C-24.17440188 30.49902054 -28.08733847 32.74926048 -32 35 C-33.16225819 35.66815577 -34.32452977 36.33628825 -35.48681641 37.00439453 C-47.94245938 44.16726097 -60.37382297 51.37024763 -72.77075195 58.63427734 C-78.38822625 61.91839658 -84.027888 65.15948564 -89.69140625 68.36328125 C-90.66080139 68.91271645 -90.66080139 68.91271645 -91.64978027 69.47325134 C-94.82199523 71.2711631 -97.996924 73.0638794 -101.17724609 74.84741211 C-102.31371582 75.49073486 -103.45018555 76.13405762 -104.62109375 76.796875 C-105.6361499 77.36760742 -106.65120605 77.93833984 -107.69702148 78.52636719 C-110.11012514 79.79329142 -110.11012514 79.79329142 -111 82 C-107.39964097 84.1733201 -103.78850584 86.32708077 -100.16625977 88.46362305 C-98.93624753 89.19275318 -97.70930713 89.92709192 -96.4855957 90.66674805 C-94.72352929 91.73056971 -92.95117624 92.7750204 -91.17578125 93.81640625 C-89.58117065 94.76688843 -89.58117065 94.76688843 -87.9543457 95.73657227 C-84.57734961 97.1807467 -83.4110879 97.21807565 -80 96 C-78.18047359 95.12981406 -76.39514113 94.18617912 -74.640625 93.19140625 C-73.61654541 92.61463135 -72.59246582 92.03785645 -71.53735352 91.44360352 C-70.45252686 90.82283936 -69.3677002 90.2020752 -68.25 89.5625 C-67.12327881 88.9243335 -65.99655762 88.28616699 -64.83569336 87.62866211 C-57.35796409 83.38154264 -49.92785422 79.05830489 -42.53125 74.671875 C-36.9013205 71.33998036 -31.23076948 68.07859236 -25.5625 64.8125 C-24.46687744 64.18102051 -23.37125488 63.54954102 -22.24243164 62.89892578 C-17.64647509 60.25083817 -13.04967426 57.60421826 -8.45263672 54.95800781 C-6.10089062 53.60421928 -3.74941488 52.24996306 -1.39819336 50.89526367 C0.79974434 49.62899006 2.99812 48.3634762 5.19702148 47.09887695 C11.50490899 43.46446436 17.77183611 39.76945152 24 36 C21.12906988 32.89688398 18.29689826 30.82599076 14.61328125 28.765625 C13.59298828 28.19199219 12.57269531 27.61835937 11.52148438 27.02734375 C10.46251953 26.44082031 9.40355469 25.85429688 8.3125 25.25 C7.24193359 24.64800781 6.17136719 24.04601562 5.06835938 23.42578125 C-2.11581787 18.87946665 -2.11581787 18.87946665 -9.30859375 21.97265625 Z M71.71484375 67.3515625 C70.80436279 67.8657373 69.89388184 68.37991211 68.95581055 68.90966797 C67.95976807 69.47572754 66.96372559 70.04178711 65.9375 70.625 C64.90471924 71.21039551 63.87193848 71.79579102 62.80786133 72.39892578 C54.56751275 77.08189052 46.37272672 81.8404567 38.19262695 86.62768555 C30.85168068 90.92374371 23.49410992 95.18993863 16.125 99.4375 C15.05805908 100.05270508 13.99111816 100.66791016 12.8918457 101.30175781 C7.81450585 104.22836746 2.73571656 107.1524401 -2.34506226 110.07307434 C-4.1250134 111.09649255 -5.90460669 112.12053013 -7.68408203 113.14477539 C-9.91349337 114.42778627 -12.14359376 115.70960088 -14.37451172 116.98999023 C-19.98835339 120.22180988 -25.53276032 123.52561507 -31 127 C-26.25338199 131.13317797 -20.92263265 134.16856649 -15.5 137.3125 C-14.56285156 137.87517578 -13.62570313 138.43785156 -12.66015625 139.01757812 C-11.75136719 139.54416016 -10.84257812 140.07074219 -9.90625 140.61328125 C-9.08447266 141.09579346 -8.26269531 141.57830566 -7.41601562 142.07543945 C-4.41792658 143.22274778 -3.03166086 142.97849303 0 142 C2.34393461 140.931069 2.34393461 140.931069 4.67578125 139.55078125 C6.02216675 138.78435303 6.02216675 138.78435303 7.39575195 138.00244141 C8.83954224 137.16592041 8.83954224 137.16592041 10.3125 136.3125 C11.83460083 135.44117432 11.83460083 135.44117432 13.38745117 134.55224609 C22.56758652 129.28487432 31.70563081 123.94415377 40.83984375 118.59765625 C47.17087227 114.89486885 53.52082921 111.22539722 59.875 107.5625 C60.93976563 106.94802002 62.00453125 106.33354004 63.1015625 105.70043945 C68.20315284 102.7578931 73.30806922 99.82143421 78.42242432 96.90113831 C80.81210708 95.53604233 83.19998891 94.16781383 85.58770752 92.79928589 C87.26943448 91.83713858 88.95377694 90.87956744 90.63818359 89.92211914 C91.66121582 89.33551514 92.68424805 88.74891113 93.73828125 88.14453125 C94.63587158 87.63253174 95.53346191 87.12053223 96.45825195 86.59301758 C99.14734649 84.90765192 101.56051152 83.02636921 104 81 C97.14697047 76.71970249 90.26018107 72.51831966 83.25 68.5 C82.33806885 67.9750293 82.33806885 67.9750293 81.40771484 67.43945312 C76.70952063 64.76399907 76.3481292 64.73164091 71.71484375 67.3515625 Z M-120 97 C-120 138.25 -120 179.5 -120 222 C-112.41 226.29 -104.82 230.58 -97 235 C-93.09643235 237.25971373 -89.19855195 239.52361837 -85.3125 241.8125 C-76.57493328 246.93412094 -67.79993786 251.98665727 -59 257 C-47.94196166 263.30031496 -36.93214968 269.67883416 -25.94921875 276.109375 C-25.09763184 276.60630859 -24.24604492 277.10324219 -23.36865234 277.61523438 C-21.86074056 278.49679236 -20.35553725 279.38301176 -18.85400391 280.27539062 C-15.64492889 282.32493565 -15.64492889 282.32493565 -12 283 C-11.60206657 267.00582989 -11.30272331 251.01327497 -11.11919308 235.01534462 C-11.03169092 227.58617904 -10.91252834 220.16009595 -10.7175293 212.73291016 C-10.54755014 206.25557607 -10.43829514 199.7804737 -10.40049559 193.30097139 C-10.3784061 189.87169985 -10.32694407 186.44880885 -10.20258904 183.021595 C-9.13656761 169.34509491 -9.13656761 169.34509491 -13.5724678 156.93596649 C-17.52143491 153.50786962 -21.95323834 151.56724034 -26.83729744 149.81281662 C-29.95518739 148.64100834 -32.68253695 147.0454488 -35.5625 145.375 C-37.04001682 144.58025841 -38.51844007 143.78717871 -40 143 C-40.00808685 143.79069382 -40.01617371 144.58138763 -40.02450562 145.39604187 C-40.1025185 152.85571397 -40.18982922 160.31519236 -40.28752708 167.77463055 C-40.33742545 171.6094013 -40.38375587 175.44414537 -40.421875 179.27905273 C-40.45880969 182.98149737 -40.50519147 186.68371521 -40.55806351 190.38596535 C-40.57656407 191.79687322 -40.591688 193.20782963 -40.60334396 194.61881065 C-40.62028005 196.59842891 -40.65044771 198.57792047 -40.68115234 200.55737305 C-40.69447601 201.68322311 -40.70779968 202.80907318 -40.7215271 203.96903992 C-41.00693119 207.07544054 -41.55196443 209.24383485 -43 212 C-46.74817909 214.49878606 -48.55299856 214.38281176 -53 214 C-56.14624023 212.70239258 -56.14624023 212.70239258 -59.30859375 210.89453125 C-60.16421654 210.41290779 -60.16421654 210.41290779 -61.03712463 209.92155457 C-62.84550074 208.89897059 -64.64120374 207.85612709 -66.4375 206.8125 C-67.63791757 206.13083141 -68.83908485 205.4504813 -70.04101562 204.77148438 C-75.00193962 201.95546486 -79.91685372 199.08652132 -84.72265625 196.01171875 C-87.6431642 193.82562213 -87.6431642 193.82562213 -90 194 C-91.22746812 190.22530707 -91.08193895 186.52218629 -90.99902344 182.60449219 C-90.97626731 181.07371775 -90.95405553 179.54293515 -90.93231201 178.012146 C-90.91952965 177.20343803 -90.90674728 176.39473007 -90.89357758 175.56151581 C-90.82288107 170.36376939 -90.81679571 165.16546131 -90.79972458 159.96731186 C-90.78107102 155.40433831 -90.73911926 150.84386253 -90.64697266 146.28173828 C-90.55895051 141.86062214 -90.53481716 137.4431838 -90.55335236 133.02127838 C-90.54906436 131.34185453 -90.5218928 129.66231981 -90.4708786 127.98366547 C-90.31845684 122.71196925 -90.37823478 118.05154598 -92 113 C-95.94842717 109.14955606 -99.9250443 107.18416914 -105 105 C-106.44560848 104.17927495 -107.8808019 103.33944539 -109.296875 102.46875 C-110.43640625 101.8190625 -111.5759375 101.169375 -112.75 100.5 C-113.35070312 100.15453125 -113.95140625 99.8090625 -114.5703125 99.453125 C-117.129953 97.73495132 -117.129953 97.73495132 -120 97 Z M106.9609375 99.7890625 C105.91808594 100.39363281 104.87523437 100.99820313 103.80078125 101.62109375 C102.67027344 102.28238281 101.53976562 102.94367188 100.375 103.625 C99.1942277 104.31157174 98.0132351 104.99776474 96.83203125 105.68359375 C93.79866655 107.4463037 90.76833666 109.21415472 87.73913574 110.98400879 C85.11080563 112.51946127 82.4810947 114.05254482 79.8515625 115.5859375 C76.91391424 117.29956565 73.97656229 119.01369262 71.04003906 120.72924805 C59.38768501 127.53407797 47.69258463 134.2646246 36 141 C31.8036869 143.41783662 27.60779716 145.83640662 23.41229248 148.25564575 C21.72901778 149.22606473 20.04542113 150.19592519 18.36181641 151.16577148 C16.82726807 152.05051147 16.82726807 152.05051147 15.26171875 152.953125 C14.36412842 153.47036133 13.46653809 153.98759766 12.54174805 154.52050781 C11.70297119 155.00874023 10.86419434 155.49697266 10 156 C9.13497769 156.42019818 8.26995539 156.84039637 7.37872028 157.27332783 C4.80160099 158.76157766 4.80160099 158.76157766 4.38476086 161.32131481 C4.38936982 162.24034242 4.39397879 163.15937002 4.39872742 164.10624695 C4.3918541 165.1621402 4.38498077 166.21803345 4.37789917 167.30592346 C4.39587555 168.46397995 4.41385193 169.62203644 4.43237305 170.81518555 C4.43164291 172.03481995 4.43091278 173.25445435 4.43016052 174.51104736 C4.43304963 177.85640791 4.4581404 181.2002302 4.49303031 184.54531837 C4.52426406 188.04064903 4.52722215 191.53599968 4.53315735 195.03144836 C4.54870473 201.65079076 4.58974473 208.26972079 4.6399048 214.8888815 C4.6957709 222.42442049 4.72327779 229.95997906 4.74838197 237.49567354 C4.80066026 252.9973546 4.88861927 268.49862415 5 284 C7.41147861 282.71832726 9.82245582 281.43572649 12.2331543 280.15258789 C12.91280998 279.7914817 13.59246567 279.43037552 14.29271698 279.05832672 C18.8656959 276.6230572 23.37321668 274.1096247 27.8125 271.4375 C34.98814393 267.17174779 42.20397287 262.97932028 49.4375 258.8125 C50.54246826 258.17570313 51.64743652 257.53890625 52.78588867 256.8828125 C56.19028081 254.92133341 59.59509655 252.96059137 63 251 C76.20056426 243.39749952 89.39592603 235.78625211 102.5625 228.125 C103.59842285 227.52357178 104.6343457 226.92214355 105.70166016 226.30249023 C106.64702637 225.75149658 107.59239258 225.20050293 108.56640625 224.6328125 C109.40115479 224.14699707 110.23590332 223.66118164 111.09594727 223.16064453 C112.93846097 222.14011742 112.93846097 222.14011742 114 221 C114.09600136 219.393108 114.12187889 217.78198231 114.12025452 216.17222595 C114.12162918 215.12749619 114.12300385 214.08276642 114.12442017 213.00637817 C114.12082489 211.85048187 114.11722961 210.69458557 114.11352539 209.50366211 C114.11367142 208.29407333 114.11381744 207.08448456 114.1139679 205.83824158 C114.11338893 202.51193649 114.10835973 199.18569281 114.10139394 195.8593986 C114.09515978 192.38670071 114.09455655 188.91400207 114.09336853 185.44129944 C114.0902554 178.86103807 114.08204225 172.28079324 114.07201904 165.70053917 C114.06085734 158.21093888 114.05534731 150.72133782 114.05032361 143.2317313 C114.03985962 127.82114461 114.02226053 112.41057443 114 97 C111.10440243 97 109.45865062 98.33441732 106.9609375 99.7890625 Z " fill="#2CBBE7" transform="translate(255,41)"/>
<path d="M0 0 C2.66989419 2.22120171 5.0501424 4.66877457 7.4375 7.1875 C8.07365234 7.84169922 8.70980469 8.49589844 9.36523438 9.16992188 C10.91974967 10.77118951 12.4621943 12.38273013 14 14 C8.54035005 20.63443074 2.49641866 26.65909866 -3.56982422 32.73095703 C-4.74017014 33.90593863 -5.9103207 35.08111485 -7.08029175 36.25646973 C-10.24313964 39.43236543 -13.40925348 42.60498463 -16.57640219 45.77659082 C-18.55791432 47.76104411 -20.53884233 49.74607869 -22.5195961 51.73128891 C-28.72590789 57.95125127 -34.93420151 64.16922527 -41.1454066 70.3843013 C-48.2999491 77.5433283 -55.44789798 84.7088536 -62.5901984 91.88009369 C-68.12394068 97.43547425 -73.66345548 102.98505549 -79.20735943 108.53029525 C-82.5132188 111.83720046 -85.81662525 115.14646869 -89.11404037 118.46179581 C-92.2150098 121.57928454 -95.32311125 124.68948408 -98.43672562 127.79434204 C-99.57446508 128.93131339 -100.70966953 130.07082836 -101.84205627 131.21313095 C-114.24725335 143.72051517 -125.40122663 149.98053644 -143.12426758 150.58032227 C-144.11992894 150.61854127 -145.11559031 150.65676027 -146.14142323 150.69613743 C-157.91008094 151.11733597 -169.68432658 151.26979068 -181.45902061 151.41499138 C-185.54922982 151.46609326 -189.63933439 151.52245932 -193.72944641 151.58070374 C-205.33816257 151.74520347 -216.94694031 151.9038323 -228.5559082 152.04956055 C-235.01403079 152.13068637 -241.47202113 152.21870748 -247.92994434 152.31442744 C-251.33011807 152.3645103 -254.73025567 152.41095752 -258.13059044 152.4487133 C-261.89933632 152.49206407 -265.66773396 152.54726155 -269.4362793 152.60522461 C-270.55460648 152.61516449 -271.67293365 152.62510437 -272.82514954 152.63534546 C-273.84917877 152.65347794 -274.87320801 152.67161041 -275.92826843 152.69029236 C-277.26061791 152.70770178 -277.26061791 152.70770178 -278.61988354 152.72546291 C-281.20624856 153.02378996 -282.80467352 153.61630085 -285 155 C-286.98403643 157.51604329 -286.98403643 157.51604329 -288.8203125 160.55859375 C-289.52027344 161.66654297 -290.22023438 162.77449219 -290.94140625 163.91601562 C-291.66952881 165.08968374 -292.39739072 166.2635136 -293.125 167.4375 C-293.85977391 168.60798933 -294.59544196 169.77791786 -295.33203125 170.94726562 C-296.68175313 173.09409683 -298.02738772 175.24350679 -299.36767578 177.39624023 C-300.55004625 179.28226791 -301.76523433 181.1478515 -303 183 C-306.58466195 181.4733675 -308.92569236 179.3500006 -311.69262695 176.62963867 C-312.61650711 175.7249736 -313.54038727 174.82030853 -314.49226379 173.88822937 C-315.49148725 172.89869855 -316.49014652 171.90859775 -317.48828125 170.91796875 C-318.51628835 169.90147102 -319.54429845 168.88497631 -320.5723114 167.8684845 C-322.72209014 165.73967841 -324.8672043 163.60628246 -327.01000977 161.47045898 C-329.75853734 158.73293326 -332.52514215 156.01446948 -335.29641438 153.29999828 C-337.42452483 151.20909187 -339.53914203 149.10493157 -341.65025902 146.99688148 C-342.66482729 145.9883716 -343.68440185 144.98487249 -344.70897865 143.98653221 C-346.13812271 142.59142396 -347.54677632 141.17541761 -348.9543457 139.75854492 C-349.76168655 138.95849533 -350.5690274 138.15844574 -351.40083313 137.33415222 C-353 135 -353 135 -352.81491089 132.32525635 C-352.00539425 130.01539187 -351.0994507 128.17979999 -349.76953125 126.12890625 C-349.30353516 125.40123047 -348.83753906 124.67355469 -348.35742188 123.92382812 C-347.59268555 122.7549707 -347.59268555 122.7549707 -346.8125 121.5625 C-345.71483944 119.85547152 -344.61718337 118.14844015 -343.51953125 116.44140625 C-342.94283691 115.5508252 -342.36614258 114.66024414 -341.77197266 113.74267578 C-339.41606461 110.09617937 -337.08703354 106.43290958 -334.7590332 102.76855469 C-333.58326528 100.91800531 -332.40601072 99.06839968 -331.22729492 97.21972656 C-328.37586376 92.74729522 -325.53643085 88.26821038 -322.7265625 83.76953125 C-301.99035318 50.58901922 -301.99035318 50.58901922 -287.11280823 46.91169739 C-280.80555266 45.57674952 -274.4912394 45.71294163 -268.07006836 45.7253418 C-266.68272123 45.7209868 -265.2953765 45.71580104 -263.90803528 45.70985413 C-260.16432138 45.696541 -256.4207089 45.69587657 -252.67697597 45.69841743 C-249.54327135 45.69949187 -246.40958687 45.69459199 -243.2758866 45.689812 C-235.88109312 45.67874453 -228.48635047 45.67826455 -221.09155273 45.68432617 C-213.47804909 45.69037124 -205.86473001 45.67803515 -198.25125784 45.6567561 C-191.69727816 45.6391159 -185.14335711 45.63314235 -178.58935457 45.63639385 C-174.68237661 45.63820218 -170.77553047 45.63561519 -166.86857414 45.62167931 C-163.19536092 45.60906517 -159.52243502 45.61107862 -155.849226 45.62409019 C-153.86843993 45.62756638 -151.88764494 45.61630598 -149.90689087 45.60452271 C-141.87971123 45.65172686 -135.54285462 46.0082561 -129.1875 51.375 C-124.4486586 57.06160968 -122.85242978 61.57608293 -123 69 C-123.93638048 75.14706246 -127.16121241 78.59944379 -131.76953125 82.5546875 C-136.576997 85.66985795 -141.23823361 86.25091315 -146.87573242 86.27124023 C-147.5350325 86.27646698 -148.19433258 86.28169373 -148.87361145 86.28707886 C-150.29438608 86.29726255 -151.71519742 86.30308936 -153.13600731 86.30496025 C-155.38481769 86.3086418 -157.63319413 86.32541321 -159.88191223 86.34571838 C-166.271372 86.40098348 -172.66089261 86.43189433 -179.05053711 86.45629883 C-182.96739156 86.47215653 -186.88393132 86.50234504 -190.80062294 86.54106331 C-192.29134094 86.5527176 -193.7821151 86.5586437 -195.27287865 86.55874443 C-197.35307215 86.55893611 -199.432393 86.57716966 -201.51245117 86.59936523 C-202.6957048 86.60443588 -203.87895844 86.60950653 -205.09806824 86.61473083 C-207.97769021 86.77205316 -207.97769021 86.77205316 -209.8820343 88.30628967 C-211.76970667 91.1661003 -211.35433595 93.69286447 -211 97 C-209.96801113 98.82509406 -209.96801113 98.82509406 -208 100 C-204.86655345 100.46515472 -204.86655345 100.46515472 -201.22460938 100.40405273 C-200.53958344 100.41091599 -199.8545575 100.41777924 -199.14877319 100.42485046 C-196.88022189 100.44317207 -194.61235959 100.43926967 -192.34375 100.43359375 C-190.76012956 100.43815689 -189.1765111 100.44346286 -187.59289551 100.44947815 C-184.26725244 100.45842263 -180.94184924 100.45597563 -177.61621094 100.44604492 C-173.38079354 100.43462298 -169.14621831 100.45465429 -164.91091156 100.48396206 C-161.63520135 100.50244046 -158.35968794 100.50200746 -155.0839386 100.49632454 C-153.52442758 100.49617237 -151.96490232 100.50212968 -150.40544128 100.51461601 C-137.47574018 100.60346354 -127.64665342 99.34473479 -117.99383545 90.02401733 C-116.99478696 89.01710508 -115.99697309 88.00896721 -115 87 C-113.67028592 85.6763815 -112.34010679 84.35323011 -111.00958252 83.03042603 C-106.96580706 78.99339652 -102.94971927 74.92963344 -98.93822098 70.86055946 C-94.8421062 66.70936964 -90.73289918 62.57118773 -86.62524867 58.43141782 C-80.34673157 52.10324525 -74.07279821 45.77069518 -67.81738281 39.41967773 C-63.11873757 34.64934059 -58.40419609 29.89522584 -53.68024826 25.14992332 C-51.8927734 23.34892428 -50.11070359 21.54254291 -48.33436966 19.73055458 C-18.36050854 -10.82860299 -18.36050854 -10.82860299 0 0 Z " fill="#2CBCE7" transform="translate(419,329)"/>
<path d="M0 0 C0.68223633 0.29100586 1.36447266 0.58201172 2.06738281 0.88183594 C32.08047772 13.8980703 59.02820978 35.0955806 78.66503906 61.23388672 C79.9100952 62.88105864 81.18446318 64.50596033 82.4609375 66.12890625 C112.02167765 105.11273023 123.79188574 157.64989748 117.25 205.78515625 C109.78107701 256.22685755 109.78107701 256.22685755 98 265 C94.25648961 266.16464768 92.45885704 266.1676593 88.75 264.8125 C84.80272109 262.21088435 84.80272109 262.21088435 84 259 C84.45847858 254.0049965 85.65564166 250.06501506 87.6875 245.5 C104.73141559 204.80680634 104.44950158 156.36583686 88.18139648 115.50048828 C86.55655086 111.6169835 84.81346977 107.79869806 83 104 C82.65598145 103.27619141 82.31196289 102.55238281 81.95751953 101.80664062 C73.45541547 84.22373451 62.18017503 69.16343825 48.390625 55.39453125 C47.01198422 54.01363779 45.64735289 52.61776013 44.32421875 51.18359375 C17.49324068 22.55961476 -26.23552787 4.99185354 -65.07893372 3.71009827 C-68.67801216 3.63122832 -72.27516254 3.61569491 -75.875 3.625 C-76.63568787 3.62521149 -77.39637573 3.62542297 -78.18011475 3.62564087 C-91.7514135 3.66306597 -104.75692558 4.88094484 -118 8 C-118.76328613 8.17660156 -119.52657227 8.35320313 -120.31298828 8.53515625 C-140.65292339 13.43088389 -161.76755274 22.6914097 -178 36 C-177.18015625 36.78503906 -176.3603125 37.57007813 -175.515625 38.37890625 C-174.4266793 39.43968956 -173.33816031 40.50091104 -172.25 41.5625 C-171.71117187 42.07619141 -171.17234375 42.58988281 -170.6171875 43.11914062 C-166.89060413 46.77755478 -164.29744027 50.29359323 -162 55 C-162 58.59200345 -162.40623768 60.26189186 -164.6550293 63.05737305 C-167.55919033 65.46324596 -169.85140541 66.04495564 -173.51953125 66.89453125 C-174.48443985 67.12422859 -174.48443985 67.12422859 -175.46884155 67.35856628 C-177.58036368 67.85737869 -179.69600727 68.3352595 -181.8125 68.8125 C-183.28386465 69.15450538 -184.75497203 69.49761929 -186.22583008 69.84179688 C-189.27652776 70.55259933 -192.32918946 71.25391512 -195.38378906 71.94775391 C-199.15775092 72.80538211 -202.92709124 73.68138767 -206.69496155 74.56535339 C-209.51736395 75.226529 -212.34132592 75.8808163 -215.16586304 76.5328064 C-216.50445817 76.8421513 -217.84270143 77.15302313 -219.18057251 77.46548462 C-221.04982185 77.90037072 -222.92135912 78.32538673 -224.79296875 78.75 C-225.8502417 78.99234375 -226.90751465 79.2346875 -227.99682617 79.484375 C-232.49077674 80.25595647 -235.76464783 80.68630676 -239.8125 78.4375 C-242.66746519 75.25625308 -242.70180333 73.22807904 -243 69 C-242.41912842 65.83810425 -242.41912842 65.83810425 -241.41699219 62.59326172 C-241.04620544 61.36864227 -240.6754187 60.14402283 -240.293396 58.8822937 C-239.87839053 57.56460024 -239.46287104 56.24706857 -239.046875 54.9296875 C-238.62558334 53.56194246 -238.20537374 52.1938637 -237.78619385 50.82546997 C-236.90716196 47.96659052 -236.01864488 45.1109031 -235.12255859 42.25732422 C-233.97721696 38.60904821 -232.85045598 34.95537171 -231.73008347 31.29936028 C-230.86391559 28.47688788 -229.99067406 25.65664593 -229.11502838 22.83710098 C-228.69728379 21.49083096 -228.28107951 20.14408195 -227.86647797 18.79684067 C-227.28460394 16.91177796 -226.69278908 15.02979253 -226.10058594 13.14794922 C-225.76669861 12.07874237 -225.43281128 11.00953552 -225.08880615 9.90792847 C-222.38765365 2.69382683 -222.38765365 2.69382683 -219 1 C-213.31571627 0.44089013 -213.31571627 0.44089013 -211 1 C-208.66015625 3.10546875 -208.66015625 3.10546875 -206 6 C-204.90646798 7.09269714 -203.80721696 8.17969275 -202.703125 9.26171875 C-201.55205219 10.40361444 -200.40101094 11.54554195 -199.25 12.6875 C-198.66089844 13.26822266 -198.07179687 13.84894531 -197.46484375 14.44726562 C-193.11290179 18.77419643 -193.11290179 18.77419643 -192 21 C-187.80069623 19.51697451 -184.2978276 17.34003738 -180.625 14.875 C-127.67719558 -19.65860291 -58.04002428 -24.81569943 0 0 Z " fill="#2CBCE7" transform="translate(328,15)"/>
</svg>
